<?xml version="1.0" encoding="utf-8"?>
<!-- Generator: Adobe Illustrator 27.0.0, SVG Export Plug-In . SVG Version: 6.00 Build 0)  -->
<svg version="1.1" id="Layer_1" xmlns="http://www.w3.org/2000/svg" xmlns:xlink="http://www.w3.org/1999/xlink" x="0px" y="0px"
	 viewBox="0 0 351 96.13" style="enable-background:new 0 0 351 96.13;" xml:space="preserve">
<g>
	<path d="M13.54,1.48l14.96,38.4c1.55,4.3,3.24,9.4,4.37,13.29h0.28c1.27-3.89,2.68-8.86,4.37-13.56L51.07,1.48h13.12L45.57,47.8
		c-8.89,22.29-14.95,33.7-23.42,40.68c-6.07,5.1-12.13,7.12-15.24,7.65l-3.1-9.94c3.1-0.94,7.2-2.82,10.86-5.77
		c3.39-2.55,7.62-7.12,10.44-13.16c0.56-1.21,0.99-2.15,0.99-2.82c0-0.67-0.28-1.61-0.85-3.09L0,1.48H13.54z"/>
	<path d="M122.74,64.04c-3.25,1.61-10.44,3.76-19.61,3.76c-20.6,0-34-13.29-34-33.16c0-20,14.39-34.51,36.68-34.51
		c7.34,0,13.83,1.75,17.21,3.36l-2.82,9.13c-2.96-1.61-7.62-3.09-14.39-3.09c-15.66,0-24.12,11.01-24.12,24.57
		c0,15.04,10.16,24.3,23.7,24.3c7.05,0,11.71-1.75,15.24-3.22L122.74,64.04z"/>
	<path d="M198.21,33.43c0,24.03-17.49,34.51-34,34.51c-18.48,0-32.73-12.89-32.73-33.43C131.48,12.75,146.44,0,165.34,0
		C184.95,0,198.21,13.56,198.21,33.43z M144.04,34.1c0,14.23,8.61,24.97,20.74,24.97c11.85,0,20.74-10.61,20.74-25.24
		c0-11.01-5.78-24.97-20.46-24.97S144.04,21.75,144.04,34.1z"/>
	<path d="M213.87,19.07c0-6.71-0.14-12.22-0.56-17.59h11l0.71,10.74h0.28C228.68,6.04,236.58,0,247.87,0
		C257.32,0,272,5.37,272,27.66v38.8h-12.42V29c0-10.47-4.09-19.2-15.8-19.2c-8.18,0-14.53,5.5-16.65,12.08
		c-0.56,1.48-0.85,3.49-0.85,5.5v39.07h-12.42V19.07z"/>
	<path d="M351,1.48c-0.28,4.7-0.56,9.94-0.56,17.86v37.73c0,14.9-3.1,24.03-9.74,29.67c-6.63,5.91-16.22,7.79-24.83,7.79
		c-8.18,0-17.21-1.88-22.71-5.37l3.1-9c4.51,2.69,11.57,5.1,20.03,5.1c12.7,0,22.01-6.31,22.01-22.69v-7.25h-0.28
		c-3.81,6.04-11.15,10.88-21.73,10.88c-16.93,0-29.06-13.69-29.06-31.69c0-22.02,15.1-34.51,30.76-34.51
		c11.85,0,18.34,5.91,21.3,11.28h0.28l0.56-9.8H351z M338.16,27.12c0-2.01-0.14-3.76-0.71-5.37c-2.26-6.85-8.32-12.49-17.35-12.49
		c-11.85,0-20.32,9.53-20.32,24.57c0,12.75,6.77,23.36,20.17,23.36c7.62,0,14.53-4.56,17.21-12.08c0.71-2.01,0.99-4.3,0.99-6.31
		V27.12z"/>
</g>
</svg>
